<mxfile host="app.diagrams.net" agent="Mozilla/5.0 (X11; Linux x86_64) AppleWebKit/537.36 (KHTML, like Gecko) Chrome/133.0.0.0 Safari/537.36 OPR/118.0.0.0" version="27.0.9">
  <diagram name="Page-1" id="YrxbDLgfzF-psmu8SgCK">
    <mxGraphModel dx="840" dy="850" grid="1" gridSize="10" guides="1" tooltips="1" connect="1" arrows="1" fold="1" page="1" pageScale="1" pageWidth="850" pageHeight="1100" math="0" shadow="0">
      <root>
        <mxCell id="0" />
        <mxCell id="1" parent="0" />
        <mxCell id="77E9dOG7L_7t3rfzqZH2-1" value="" style="group" parent="1" vertex="1" connectable="0">
          <mxGeometry x="20" y="200" width="370" height="130" as="geometry" />
        </mxCell>
        <mxCell id="77E9dOG7L_7t3rfzqZH2-2" value="" style="rounded=1;whiteSpace=wrap;html=1;fillColor=#dae8fc;strokeColor=#6c8ebf;container=0;" parent="77E9dOG7L_7t3rfzqZH2-1" vertex="1">
          <mxGeometry width="370" height="130" as="geometry" />
        </mxCell>
        <mxCell id="77E9dOG7L_7t3rfzqZH2-3" value="&lt;div&gt;&lt;h2 style=&quot;margin-top: 0px;&quot;&gt;Virtual host discovery&amp;nbsp;&lt;/h2&gt;&lt;pre style=&quot;margin-top: 0px;&quot;&gt;T1595.003&lt;/pre&gt;&lt;p&gt;&lt;font style=&quot;font-size: 14px;&quot;&gt;Perform Virtual Host Scanning to discover different web service running on same IP&lt;/font&gt;&lt;/p&gt;&lt;/div&gt;" style="text;html=1;whiteSpace=wrap;overflow=hidden;rounded=0;container=0;" parent="77E9dOG7L_7t3rfzqZH2-1" vertex="1">
          <mxGeometry x="17.34375" y="5.909090909090908" width="341.09375" height="112.27272727272725" as="geometry" />
        </mxCell>
        <mxCell id="77E9dOG7L_7t3rfzqZH2-4" value="" style="group" parent="1" vertex="1" connectable="0">
          <mxGeometry x="30" y="360" width="350" height="120" as="geometry" />
        </mxCell>
        <mxCell id="77E9dOG7L_7t3rfzqZH2-5" value="" style="rounded=1;whiteSpace=wrap;html=1;fillColor=#dae8fc;strokeColor=#6c8ebf;container=0;" parent="77E9dOG7L_7t3rfzqZH2-4" vertex="1">
          <mxGeometry width="350" height="120" as="geometry" />
        </mxCell>
        <mxCell id="77E9dOG7L_7t3rfzqZH2-6" value="&lt;div&gt;&lt;h2 style=&quot;margin-top: 0px;&quot;&gt;PHP reverse shell upload&amp;nbsp;&lt;/h2&gt;&lt;pre style=&quot;margin-top: 0px;&quot;&gt;T1190&lt;/pre&gt;&lt;p&gt;&lt;font style=&quot;font-size: 14px;&quot;&gt;Inject a PHP reverse shell through a file upload then execute it to gain access on the server&lt;/font&gt;&lt;/p&gt;&lt;/div&gt;" style="text;html=1;whiteSpace=wrap;overflow=hidden;rounded=0;container=0;" parent="77E9dOG7L_7t3rfzqZH2-4" vertex="1">
          <mxGeometry x="16.40625" y="5.454545454545454" width="322.65625" height="103.63636363636363" as="geometry" />
        </mxCell>
        <mxCell id="77E9dOG7L_7t3rfzqZH2-10" value="" style="group" parent="1" vertex="1" connectable="0">
          <mxGeometry x="120" y="80" width="170" height="90" as="geometry" />
        </mxCell>
        <mxCell id="77E9dOG7L_7t3rfzqZH2-11" value="" style="rounded=1;whiteSpace=wrap;html=1;fillColor=#ffe6cc;strokeColor=#d79b00;container=0;" parent="77E9dOG7L_7t3rfzqZH2-10" vertex="1">
          <mxGeometry width="170" height="90" as="geometry" />
        </mxCell>
        <mxCell id="77E9dOG7L_7t3rfzqZH2-12" value="&lt;h2 style=&quot;margin-top: 0px;&quot;&gt;Start page given&amp;nbsp;&lt;/h2&gt;&lt;pre style=&quot;margin-top: 0px;&quot;&gt;&lt;font face=&quot;Helvetica&quot;&gt;&lt;span style=&quot;font-size: 14px; white-space: normal;&quot;&gt;stellar.com&lt;/span&gt;&lt;/font&gt;&lt;/pre&gt;" style="text;html=1;whiteSpace=wrap;overflow=hidden;rounded=0;container=0;" parent="77E9dOG7L_7t3rfzqZH2-10" vertex="1">
          <mxGeometry x="7.96875" y="4.090909090909091" width="156.71875" height="77.72727272727272" as="geometry" />
        </mxCell>
        <mxCell id="77E9dOG7L_7t3rfzqZH2-19" style="edgeStyle=orthogonalEdgeStyle;rounded=0;orthogonalLoop=1;jettySize=auto;html=1;entryX=0.5;entryY=0;entryDx=0;entryDy=0;" parent="1" source="77E9dOG7L_7t3rfzqZH2-2" target="77E9dOG7L_7t3rfzqZH2-5" edge="1">
          <mxGeometry relative="1" as="geometry" />
        </mxCell>
        <mxCell id="-dTlPRUiZbFYxzQFcjML-2" style="edgeStyle=orthogonalEdgeStyle;rounded=0;orthogonalLoop=1;jettySize=auto;html=1;entryX=0.5;entryY=0;entryDx=0;entryDy=0;" edge="1" parent="1" source="77E9dOG7L_7t3rfzqZH2-11" target="77E9dOG7L_7t3rfzqZH2-2">
          <mxGeometry relative="1" as="geometry" />
        </mxCell>
      </root>
    </mxGraphModel>
  </diagram>
</mxfile>
